<svg width="920" height="913" viewBox="0 0 920 913" fill="none" xmlns="http://www.w3.org/2000/svg">
<path d="M586.701 366.082C630.184 318.719 695.034 291.036 781.175 282.974C867.156 274.927 931.741 247.311 975.006 200.185C1018.27 153.059 1040.28 86.3544 1040.96 -1.99809e-06L1041.96 0.00843436C1041.28 86.5231 1019.22 153.498 975.742 200.861C932.26 248.225 867.41 275.907 781.269 283.969C695.287 292.017 630.702 319.633 587.438 366.759C544.174 413.884 522.166 480.589 521.481 566.943C520.795 653.457 498.744 720.432 455.261 767.796C411.779 815.159 346.928 842.843 260.787 850.905C174.806 858.952 110.221 886.567 66.9569 933.693C23.6927 980.819 1.68479 1047.52 0.999759 1133.88L-2.39288e-05 1133.87C0.686313 1047.35 22.7376 980.38 66.2202 933.017C109.703 885.653 174.553 857.97 260.694 849.908C346.675 841.861 411.26 814.245 454.525 767.119C497.789 719.994 519.796 653.289 520.481 566.935C521.167 480.42 543.219 413.446 586.701 366.082Z" fill="#E5E5E5" fill-opacity="0.11"/>
</svg>
