<svg width="462" height="23" viewBox="0 0 462 23" fill="none" xmlns="http://www.w3.org/2000/svg">
<path d="M458.7 0.0489993C460.054 -0.221648 461.37 0.656107 461.641 2.00994C461.912 3.36375 461.034 4.68048 459.68 4.95134C415.217 13.8439 367.501 11.3113 322.99 11.4103C249.203 11.5745 175.509 10.7752 101.846 13.2775C68.9625 14.3946 34.6604 13.8646 3.16451 22.5373C1.83334 22.9038 0.456842 22.1214 0.0902888 20.7902C-0.276079 19.4593 0.505566 18.0837 1.83638 17.717C34.0624 8.84314 69.1836 9.38422 101.676 8.28044C175.445 5.77451 249.28 6.57429 322.979 6.41033C367.902 6.3104 414.865 8.81598 458.7 0.0489993Z" fill="#FCA311"/>
</svg>
